# xmcd
#
# Track frame offsets:
#   150
#   13155
#   32307
#   43976
#   59161
#   71582
#   91263
#   111114
#   126485
#   139803
#   150465
#   166758
#
# Disc length: 2420 seconds
#
# Revision: 0
# Processed by: cddbd v1.5.2PL0 Copyright (c) Steve Scherf et al.
# Submitted via: GXTranscoder 2.0.1939
#
DISCID=a309720c
DTITLE=Hombre Lobo - 12 Songs of Desire
DYEAR=2009
DGENRE=Blues
TTITLE0=prizefighter
TTITLE1=that lock you give that guy
TTITLE2=lilac breeze
TTITLE3=in my dreams
TTITLE4=tremendous dynamite
TTITLE5=the longing
TTITLE6=fresh blood
TTITLE7=what's a fella gotta do
TTITLE8=my timing is off
TTITLE9=all the beautifull things
TTITLE10=beginners luck
TTITLE11=ordinary man
EXTD=
EXTT0=
EXTT1=
EXTT2=
EXTT3=
EXTT4=
EXTT5=
EXTT6=
EXTT7=
EXTT8=
EXTT9=
EXTT10=
EXTT11=
PLAYORDER=
